<svg width="87" height="65" viewBox="0 0 87 65" fill="none" xmlns="http://www.w3.org/2000/svg">
<g clip-path="url(#clip0)">
<path d="M86.321 30.7425C87.0467 30.1899 87.0295 29.3043 86.283 28.7644C85.5546 28.2379 84.3966 28.2331 83.6641 28.7535L43.4015 58.3689L3.39083 28.4164C2.66984 27.8577 1.47673 27.8373 0.725564 28.3709C-0.0254138 28.9045 -0.0497777 29.7898 0.67103 30.3486C0.686179 30.3603 0.701505 30.3718 0.717182 30.3832L42.0583 61.3288C42.7921 61.8779 43.9852 61.8829 44.7237 61.3399L86.321 30.7425Z" fill="#009688"/>
<path d="M44.8284 36.1648L86.4259 5.5646C87.1515 5.012 87.1344 4.12636 86.3878 3.58651C85.6595 3.05998 84.5015 3.05515 83.7687 3.5756L43.5062 33.191L3.4957 3.23845C2.77472 2.67982 1.5816 2.65951 0.830438 3.19299C0.0794601 3.72661 0.0550962 4.61194 0.775904 5.1707C0.791053 5.18243 0.806379 5.19391 0.822056 5.20525L42.1632 36.1509C42.8959 36.7007 44.089 36.707 44.8284 36.1648Z" fill="#009688"/>
<path d="M0.16681 29.3931C0.16809 28.6206 1.01328 27.9968 2.05431 27.9996C2.55619 28.0011 3.03713 28.151 3.39052 28.4162L43.4012 58.3687L83.6599 28.7506C84.4109 28.217 85.6042 28.2374 86.3251 28.796C87.0283 29.3411 87.0247 30.2004 86.317 30.7394L44.7195 61.3396C43.9812 61.8826 42.788 61.8776 42.0541 61.3285L0.713167 30.383C0.361708 30.1194 0.165267 29.7634 0.16681 29.3931Z" fill="white"/>
<path d="M0.272065 4.21526C0.273338 3.44274 1.11853 2.81891 2.15956 2.8218C2.66144 2.82324 3.14238 2.97316 3.49577 3.23835L43.5065 33.1909L83.7651 3.57273C84.5045 3.02884 85.6994 3.03381 86.4342 3.58385C87.169 4.13388 87.1654 5.02061 86.426 5.5645L44.8285 36.1647C44.0902 36.7077 42.897 36.7027 42.1631 36.1536L0.822119 5.2079C0.46854 4.94402 0.270517 4.5869 0.272065 4.21526Z" fill="white"/>
</g>
<defs>
<clipPath id="clip0">
<rect width="64.3613" height="86.7328" fill="white" transform="translate(87.0001 0.361328) rotate(90.2387)"/>
</clipPath>
</defs>
</svg>
